<svg width="201" height="28" viewBox="0 0 201 28" fill="none" xmlns="http://www.w3.org/2000/svg">
<path fill-rule="evenodd" clip-rule="evenodd" d="M54.7629 15.9847C45.1409 -10.9103 14.074 4.26679 14.074 4.26679C39.8106 -2.86315 54.7629 15.9847 54.7629 15.9847" fill="white"/>
<mask id="mask0" mask-type="alpha" maskUnits="userSpaceOnUse" x="0" y="4" width="33" height="15">
<path fill-rule="evenodd" clip-rule="evenodd" d="M0 4.46463H32.5475V18.3812H0V4.46463Z" fill="white"/>
</mask>
<g mask="url(#mask0)">
<path fill-rule="evenodd" clip-rule="evenodd" d="M16.0204 14.7282C16.4616 14.2024 16.9775 13.7473 17.4677 13.267L18.9552 11.8395C19.4799 11.3929 20.0236 10.9672 20.5572 10.5301L21.3619 9.87818C21.6351 9.66696 21.9273 9.47694 22.2106 9.27686C24.4614 7.67597 26.9831 6.33849 29.7339 5.66731C30.6622 5.47838 31.6041 5.34409 32.5474 5.31527C26.4483 3.95741 21.8936 4.6324 21.8936 4.6324C19.6604 4.8776 17.6041 5.2764 15.6958 5.78067C9.15875 7.75535 0.687251 6.03484 -0.000244141 5.32424C4.13859 10.8182 8.83253 15.1764 12.9336 18.3812C13.0698 18.1991 13.2046 18.0159 13.3413 17.8334C14.1862 16.7613 15.1086 15.75 16.0204 14.7282" fill="white"/>
</g>
<path fill-rule="evenodd" clip-rule="evenodd" d="M84.013 14.7672C83.0923 14.2493 82.102 14.0996 79.5972 14.0996H75.1115C72.5428 14.0996 72.1318 13.6298 72.1318 12.1224C72.1318 10.4351 72.5866 10.073 77.4088 10.073C80.9561 10.073 82.0819 10.1959 82.6554 10.6507C82.9857 10.8847 83.1238 11.1712 83.1238 12.3415V12.5712H85.2241V12.0316C85.2241 10.4076 84.8237 9.54425 83.795 8.95081C82.6837 8.3185 81.3674 8.17307 76.7526 8.17307C73.6511 8.17307 72.5336 8.32041 71.552 8.85974C70.3923 9.51679 69.9402 10.4519 69.9402 12.1956C69.9402 13.9476 70.4306 14.9156 71.6338 15.5365C72.5249 15.9916 73.8074 16.1449 76.7159 16.1449H81.0013C81.826 16.1449 82.3918 16.2509 82.7865 16.4812C83.1796 16.6981 83.3791 16.9999 83.3791 18.0489C83.3791 19.7498 82.9235 20.2443 79.9071 20.2443H75.2754C72.4376 20.2443 72.0587 19.8175 72.0587 18.122V17.3815H69.9587V18.1946C69.9587 19.9774 70.3863 20.8723 71.534 21.4945C72.4042 21.9866 73.4418 22.1442 75.8044 22.1442H79.2142C82.192 22.1442 83.4169 21.908 84.4578 21.1319C85.248 20.539 85.5704 19.6457 85.5704 18.0489C85.5704 16.3164 85.1339 15.3962 84.013 14.7672" fill="white"/>
<path fill-rule="evenodd" clip-rule="evenodd" d="M90.786 15.8532H101.544V13.99H90.786V10.2551H102V8.33728H88.5762V21.9801H102.055V20.0619H90.786V15.8532Z" fill="white"/>
<path fill-rule="evenodd" clip-rule="evenodd" d="M119.684 19.8022L107.918 8.33713H104.932V21.9802H107.142V10.5682L118.842 21.9152L118.909 21.9802H121.894V8.33713H119.684V19.8022Z" fill="white"/>
<path fill-rule="evenodd" clip-rule="evenodd" d="M139.045 14.7672C138.125 14.2493 137.134 14.0996 134.629 14.0996H130.144C127.575 14.0996 127.164 13.6298 127.164 12.1224C127.164 10.4351 127.619 10.073 132.441 10.073C135.988 10.073 137.114 10.1959 137.688 10.6507C138.018 10.8847 138.156 11.1712 138.156 12.3415V12.5712H140.256V12.0316C140.256 10.4079 139.856 9.54425 138.827 8.95081C137.716 8.3185 136.4 8.17307 131.785 8.17307C128.683 8.17307 127.566 8.32041 126.584 8.85974C125.424 9.51679 124.972 10.4519 124.972 12.1956C124.972 13.9476 125.463 14.9156 126.666 15.5365C127.557 15.9916 128.839 16.1449 131.748 16.1449H136.033C136.858 16.1449 137.424 16.2509 137.819 16.4812C138.212 16.6981 138.411 16.9999 138.411 18.0489C138.411 19.7498 137.956 20.2443 134.939 20.2443H130.308C127.47 20.2443 127.091 19.8175 127.091 18.122V17.3815H124.991V18.1946C124.991 19.9774 125.419 20.8723 126.566 21.4945C127.436 21.9866 128.474 22.1442 130.837 22.1442H134.246C137.224 22.1442 138.449 21.908 139.49 21.1319C140.28 20.539 140.603 19.646 140.603 18.0489C140.603 16.3164 140.166 15.3962 139.045 14.7672" fill="white"/>
<mask id="mask1" mask-type="alpha" maskUnits="userSpaceOnUse" x="0" y="0" width="201" height="28">
<path fill-rule="evenodd" clip-rule="evenodd" d="M0 27.8752H200.557V0H0V27.8752Z" fill="white"/>
</mask>
<g mask="url(#mask1)">
<path fill-rule="evenodd" clip-rule="evenodd" d="M143.681 21.98H145.891V8.33693H143.681V21.98Z" fill="white"/>
<path fill-rule="evenodd" clip-rule="evenodd" d="M151.708 8.33717H149.498V21.9802H161.955V19.9893H151.708V8.33717Z" fill="white"/>
<path fill-rule="evenodd" clip-rule="evenodd" d="M163.958 21.98H166.168V8.33693H163.958V21.98Z" fill="white"/>
<path fill-rule="evenodd" clip-rule="evenodd" d="M184.067 9.98072L184.146 9.91194V8.33714H169.209V10.2189H180.454L168.826 20.2412V21.9802H184.384V20.0621H172.39L184.067 9.98072Z" fill="white"/>
<path fill-rule="evenodd" clip-rule="evenodd" d="M189.289 20.0621V15.8534H200.047V13.9899H189.289V10.2553H200.503V8.33713H187.079V21.9802H200.557V20.0621H189.289Z" fill="white"/>
<path fill-rule="evenodd" clip-rule="evenodd" d="M54.2947 20.4852C51.6094 16.4125 48.978 14.2396 48.978 14.2396C48.8515 14.2701 48.7238 14.2981 48.5971 14.3288C45.3662 15.1291 42.1517 15.9438 39.0081 16.9526C35.8625 17.9465 32.7529 19.0415 29.7792 20.4371C27.2739 21.5965 24.8792 22.9677 22.634 24.6602C22.8314 24.7518 23.0002 24.825 23.1329 24.8761C26.7884 26.2875 32.6665 28.2361 39.8372 26.7733C45.5348 25.6109 49.4317 22.6219 51.4417 20.6986L54.1789 27.8753C55.727 25.6682 55.7787 22.7358 54.2947 20.4852" fill="white"/>
<path fill-rule="evenodd" clip-rule="evenodd" d="M20.7532 19.1751C23.4711 18.1562 27.3085 17.1534 30.9202 17.7341C31.4813 17.444 32.0489 17.1678 32.622 16.9049C27.9201 14.8522 23.874 14.6956 21.2012 14.9659C18.9963 15.1888 17.3745 15.7259 16.5606 16.0473C16.1966 16.3827 15.8328 16.7187 15.4604 17.0468C14.9616 17.5 14.4323 17.9246 13.9579 18.4061C13.8087 18.5463 13.6573 18.6861 13.5083 18.8266C14.5878 19.6535 15.6213 20.3976 16.5867 21.059C17.6012 20.5186 19.0477 19.815 20.7532 19.1751" fill="white"/>
<path fill-rule="evenodd" clip-rule="evenodd" d="M39.6276 7.71729C38.6386 7.25434 37.6592 6.85364 36.6987 6.5103L35.703 6.20611C35.1038 6.17022 34.5096 6.15772 33.9218 6.1917C32.6066 6.23927 31.339 6.59022 30.0972 6.94933C29.5913 7.16137 29.0803 7.3465 28.5776 7.55364C31.631 8.23407 35.3354 8.28953 39.6276 7.71729" fill="white"/>
<path fill-rule="evenodd" clip-rule="evenodd" d="M28.461 10.4928C32.6926 10.281 38.5788 10.6456 43.1901 13.4537C43.2108 13.4491 43.2312 13.4439 43.2518 13.4396C44.5847 13.1675 45.9173 12.903 47.2591 12.6996L45.2526 11.0585C43.7637 9.96351 42.2593 9.04658 40.7683 8.27807C38.0936 8.68829 35.8623 8.83644 34.029 8.83644C30.5619 8.83644 28.5132 8.31015 27.5455 8.04048C27.2035 8.20739 26.8623 8.37485 26.5285 8.55807C25.9669 8.90304 25.3941 9.22464 24.8276 9.55792C24.2706 9.90969 23.7383 10.3082 23.1927 10.6804C22.938 10.8573 22.674 11.0196 22.4231 11.2031C23.9677 10.9199 26.0867 10.6119 28.461 10.4928" fill="white"/>
<path fill-rule="evenodd" clip-rule="evenodd" d="M17.2654 21.5179C19.395 22.9394 21.1411 23.9262 22.2393 24.4704C24.0523 22.1918 26.4127 20.3213 28.9305 18.8392C29.2271 18.6619 29.5267 18.4904 29.8276 18.3221C25.0543 17.9331 19.9346 20.1407 17.2654 21.5179" fill="white"/>
<path fill-rule="evenodd" clip-rule="evenodd" d="M28.512 11.2077C25.3247 11.3662 22.6065 11.8705 21.1535 12.1874L20.0068 13.0761C19.3204 13.666 18.627 14.2486 17.937 14.8379C18.7827 14.6074 19.8445 14.3853 21.0923 14.257C23.9722 13.9607 28.3894 14.1393 33.4988 16.5139C35.0738 15.8342 36.687 15.2484 38.3172 14.7409C39.5949 14.363 40.8758 14.0017 42.1673 13.6897C37.8189 11.3205 32.4377 11.0123 28.512 11.2077" fill="white"/>
</g>
</svg>
