<?xml version="1.0" encoding="UTF-8"?>
<svg width="54px" height="62px" viewBox="0 0 54 62" version="1.1" xmlns="http://www.w3.org/2000/svg" xmlns:xlink="http://www.w3.org/1999/xlink">
    <!-- Generator: Sketch 52.6 (67491) - http://www.bohemiancoding.com/sketch -->
    <title>main_page_solution6</title>
    <desc>Created with Sketch.</desc>
    <g id="Welcome" stroke="none" stroke-width="1" fill="none" fill-rule="evenodd">
        <g id="Sensilize" transform="translate(-787.000000, -2651.000000)" fill="#1A99E5">
            <g id="main_page_solution6" transform="translate(787.000000, 2651.000000)">
                <path d="M28.1117647,27.7264 C28.0526888,27.1850529 27.5921635,26.7748256 27.0435176,26.7748256 C26.4948718,26.7748256 26.0343465,27.1850529 25.9752706,27.7264 C25.9752706,29.1645495 24.8005711,30.3304 23.3515059,30.3304 C21.9024406,30.3304 20.7277412,29.1645495 20.7277412,27.7264 C20.7345481,27.4470034 20.6265757,27.1768731 20.4286365,26.9780862 C20.2306973,26.7792994 19.9598134,26.6689511 19.6782353,26.6724 C19.3955851,26.665719 19.1221743,26.7725022 18.9199158,26.9685689 C18.7176572,27.1646356 18.603661,27.4333994 18.6037412,27.714 C18.5136594,29.4573626 19.3995524,31.1079525 20.9075656,32.0064705 C22.4155788,32.9049884 24.299927,32.9049884 25.8079403,32.0064705 C27.3159535,31.1079525 28.2018465,29.4573626 28.1117647,27.714 L28.1117647,27.7264 Z" id="Path"></path>
                <path d="M52.8251294,34.1248 L38.0695765,34.0504 C37.4830501,34.0504 37.0075765,34.5222919 37.0075765,35.1044 L37.0075765,42.6312 L35.9705647,42.2592 C34.2836138,41.6533082 32.5045337,41.3387575 30.7105412,41.3292 L28.0867765,41.3292 L28.0867765,38.8492 L28.5365647,38.6384 C32.7601497,36.6401484 35.4592539,32.4196373 35.4832941,27.776 L35.4832941,21.3404 L36.108,21.2164 C40.0357051,20.4306156 42.8715235,17.0211915 42.9048,13.0448 C42.9048,12.4626919 42.4293264,11.9908 41.8428,11.9908 L35.5332706,11.9908 L35.5332706,7.1176 C35.5792272,4.58192587 34.0645308,2.27411986 31.7090309,1.29095142 C29.3535309,0.30778298 26.6321894,0.847497798 24.8383059,2.6536 L23.4889412,4.0052 L22.0896,2.604 C20.9188832,1.42525018 19.3218777,0.760007002 17.6541882,0.7564 C14.2040329,0.7564 11.4071294,3.53223455 11.4071294,6.9564 L11.4071294,11.8296 L4.99764706,11.7924 C4.71612982,11.7856443 4.44394915,11.8928034 4.24365349,12.0892515 C4.04335784,12.2856997 3.93217201,12.554543 3.93564706,12.834 C3.92487008,16.8118363 6.72457251,20.2527622 10.6449882,21.08 L11.2572,21.204 L11.2572,27.6396 C11.2542097,32.2825726 13.9225188,36.5197066 18.1289647,38.5516 L18.5662588,38.7624 L18.5662588,41.2424 L15.9424941,41.2424 C11.7407658,41.2160074 7.70057436,42.8472952 4.71075851,45.7773814 C1.72094266,48.7074677 0.0264257043,52.6963221 -1.00353753e-15,56.8664 L-1.00353753e-15,60.5864 C-0.00680697314,60.8657966 0.101165455,61.1359269 0.29910469,61.3347138 C0.497043924,61.5335006 0.767927805,61.6438489 1.04950588,61.6404 L52.6876941,61.9256 C52.9855995,61.9203095 53.2675637,61.7910605 53.4647745,61.5693959 C53.6619852,61.3477312 53.7563015,61.0540413 53.7247059,60.76 L53.8746353,35.1416 C53.8485001,34.5815601 53.389886,34.1372378 52.8251294,34.1248 Z M13.4686588,6.9564 C13.4833672,5.29119979 14.5044885,3.79774002 16.0582056,3.16901063 C17.6119227,2.54028124 19.3941134,2.89934878 20.5778118,4.0796 L22.7268,6.2 C22.9229851,6.4014108 23.1942058,6.51356813 23.4764471,6.51 C23.7550728,6.50751872 24.0226064,6.40131142 24.2260941,6.2124 L26.4000706,4.0796 C27.5972951,2.89858299 29.3962195,2.55538693 30.9493089,3.2117032 C32.5023984,3.86801947 33.4998543,5.39293106 33.4717412,7.068 L33.4717412,11.9412 L13.4811529,11.8296 L13.4686588,6.9564 Z M6.40948235,14.942 L6.04715294,13.9004 L40.8182824,14.0864 L40.4434588,15.1156 C39.5360532,17.6127785 37.1460184,19.2751851 34.4712706,19.2696 L12.3441882,19.1456 C9.66786824,19.1354045 7.28920995,17.4505817 6.40948235,14.942 Z M13.3562118,27.652 L13.3560502,21.266 L33.3468,21.3652 L33.3468,27.7636 C33.3157486,33.2422647 28.8155309,37.6586175 23.2952824,37.6278 C17.7750338,37.5969825 13.3251604,33.1306647 13.3562118,27.652 Z M16.9545176,43.4 L19.5782824,43.4 C19.8609326,43.406681 20.1343433,43.2998978 20.3366019,43.1038311 C20.5388604,42.9077644 20.6528566,42.6390006 20.6527765,42.3584 L20.6527765,39.5064 L21.5398588,39.6304 C22.681481,39.8050578 23.8419927,39.8217501 24.9882353,39.68 L25.8753176,39.556 L25.8753176,42.408 C25.8752779,42.9921477 26.3487759,43.4676076 26.9373176,43.4744 L29.5610824,43.4744 L29.5610824,48.6824 L16.9420235,48.608 L16.9545176,43.4 Z M7.37152941,59.52 L2.11150588,59.52 L2.11150588,56.916 C2.12028025,53.3594899 3.54370769,49.9502811 6.07214118,47.43 L7.49647059,46.0412 L7.37152941,59.52 Z M36.8701412,59.6812 L9.49552941,59.52 L9.57049412,44.8508 L9.99529412,44.64 C11.2377088,44.0634761 12.5600775,43.6747694 13.9184471,43.4868 L14.8055294,43.3628 L14.8055294,49.6248 C14.8055294,50.2069081 15.281003,50.6788 15.8675294,50.6788 L30.6230824,50.7656 C31.2096088,50.7656 31.6850824,50.2937081 31.6850824,49.7116 L31.6850824,43.5116 L32.5721647,43.6356 C33.9293791,43.8586551 35.2467092,44.2763569 36.4828235,44.8756 L36.9201176,45.0988 L36.8701412,59.6812 Z M51.6256941,59.7556 L38.9941412,59.7556 L38.9941412,54.5352 L51.6506824,54.56 L51.6256941,59.7556 Z M51.6256941,52.4396 L38.9941412,52.3652 L38.9941412,43.4992 L51.6256941,43.4992 L51.6256941,52.4396 Z M51.6256941,41.4532 L38.9941412,41.3912 L38.9941412,36.1832 L51.6256941,36.1832 L51.6256941,41.4532 Z" id="Shape" fill-rule="nonzero"></path>
            </g>
        </g>
    </g>
</svg>