<?xml version="1.0" encoding="UTF-8"?>
<svg width="60px" height="60px" viewBox="0 0 60 60" version="1.1" xmlns="http://www.w3.org/2000/svg" xmlns:xlink="http://www.w3.org/1999/xlink">
    <!-- Generator: Sketch 52.6 (67491) - http://www.bohemiancoding.com/sketch -->
    <title>main_page_solution2</title>
    <desc>Created with Sketch.</desc>
    <g id="Welcome" stroke="none" stroke-width="1" fill="none" fill-rule="evenodd">
        <g id="Sensilize" transform="translate(-192.000000, -2466.000000)" fill="#1A99E5">
            <g id="main_page_solution2" transform="translate(192.000000, 2466.000000)">
                <path d="M58.7497778,14.4545455 L52.7988889,14.4545455 L52.7988889,4.90909091 C52.7988889,4.30659845 52.3133666,3.81818182 51.7144444,3.81818182 L28.06,3.68181818 L28.06,1.22727273 C28.0705725,0.67193122 27.6596797,0.199540159 27.1111111,0.136363636 L20.0757778,0.136363636 C19.789419,0.13271694 19.5135388,0.244603073 19.3097668,0.447027503 C19.1059947,0.649451932 18.9913104,0.92554745 18.9913333,1.21363636 L18.9913333,8.29090909 C18.9913333,8.58023617 19.105587,8.85771317 19.3089598,9.06229831 C19.5123325,9.26688345 19.7881652,9.38181818 20.0757778,9.38181818 L27.1111111,9.38181818 C27.7018145,9.37466166 28.1810121,8.89863315 28.1955556,8.30454545 L28.1955556,5.85 L50.7655556,5.97272727 L50.7655556,14.4136364 L44.8011111,14.4136364 C44.5134986,14.4136364 44.2376659,14.5285711 44.0342931,14.7331562 C43.8309203,14.9377414 43.7166667,15.2152184 43.7166667,15.5045455 L43.5811111,40.5 C43.5811111,41.1024925 44.0666334,41.5909091 44.6655556,41.5909091 L50.6164444,41.5909091 L50.6164444,50.0318182 L45.75,50.0318182 L45.75,47.5772727 C45.7536251,47.2892069 45.642402,47.0116821 45.4411771,46.8066953 C45.2399522,46.6017086 44.9654928,46.4863406 44.6791111,46.4863636 L37.6437778,46.4863636 C37.357419,46.4827169 37.0815388,46.5946031 36.8777668,46.7970275 C36.6739947,46.9994519 36.5593104,47.2755474 36.5593333,47.5636364 L36.5593333,54.6409091 C36.5557082,54.9289749 36.6669314,55.2064997 36.8681562,55.4114865 C37.0693811,55.6164732 37.3438405,55.7318413 37.6302222,55.7318182 L44.6655556,55.7318182 C44.9519143,55.7354649 45.2277945,55.6235787 45.4315666,55.4211543 C45.6353386,55.2187299 45.7500229,54.9426344 45.75,54.6545455 L45.75,52.2 L51.7008889,52.2 C51.9872477,52.2036467 52.2631279,52.0917606 52.4668999,51.8893361 C52.6706719,51.6869117 52.7853563,51.4108162 52.7853333,51.1227273 L52.7853333,41.5772727 L58.7362222,41.5772727 C59.022581,41.5809194 59.2984612,41.4690333 59.5022332,41.2666089 C59.7060053,41.0641844 59.8206896,40.7880889 59.8206667,40.5 L59.9562222,15.4909091 C59.9471958,15.1870918 59.811003,14.9012486 59.5812283,14.7038667 C59.3514535,14.5064849 59.0494818,14.4159347 58.7497778,14.4545455 Z M25.9453333,7.2 L21.0653333,7.2 L21.0653333,2.30454545 L25.9453333,2.30454545 L25.9453333,7.2 Z M43.3777778,53.5227273 L38.5113333,53.5227273 L38.5113333,48.6272727 L43.3777778,48.6272727 L43.3777778,53.5227273 Z M57.5297778,39.45 L45.628,39.3818182 L45.628,34.4863636 L57.5297778,34.5545455 L57.5297778,39.45 Z M57.5297778,32.3727273 L45.628,32.3727273 L45.628,23.7 L57.5433333,23.7681818 L57.5297778,32.3727273 Z M57.5975556,21.4636364 L45.6822222,21.4636364 L45.6822222,16.5545455 L57.5975556,16.5545455 L57.5975556,21.4636364 Z" id="Shape" fill-rule="nonzero"></path>
                <path d="M15.0331111,42.75 C14.7454986,42.75 14.4696659,42.8649347 14.2662931,43.0695199 C14.0629203,43.274105 13.9486667,43.551582 13.9486667,43.8409091 L13.9486667,47.3727273 C13.9486667,47.6620544 14.0629203,47.9395313 14.2662931,48.1441165 C14.4696659,48.3487016 14.7454986,48.4636364 15.0331111,48.4636364 C15.3194699,48.4672831 15.5953501,48.3553969 15.7991221,48.1529725 C16.0028941,47.9505481 16.1175785,47.6744526 16.1175556,47.3863636 L16.1175556,43.8545455 C16.1176014,43.2498077 15.6342194,42.7574659 15.0331111,42.75 Z" id="Path"></path>
                <path d="M14.9788889,53.3727273 C14.6925301,53.3690806 14.4166499,53.4809667 14.2128779,53.6833911 C14.0091059,53.8858156 13.8944215,54.1619111 13.8944444,54.45 L13.8944444,57.9818182 C13.8944444,58.5843106 14.3799668,59.0727273 14.9788889,59.0727273 C15.577811,59.0727273 16.0633333,58.5843106 16.0633333,57.9818182 L16.0633333,54.4636364 C16.0670118,54.1731907 15.9539398,53.8935585 15.7497641,53.6881657 C15.5455885,53.482773 15.2676134,53.3690269 14.9788889,53.3727273 Z" id="Path"></path>
                <path d="M19.7911111,42.7772727 C19.192189,42.7772727 18.7066667,43.2656894 18.7066667,43.8681818 L18.7066667,47.4 C18.7682944,47.9518989 19.2322544,48.3691325 19.7843333,48.3691325 C20.3364122,48.3691325 20.8003722,47.9518989 20.862,47.4 L20.862,43.8545455 C20.8410505,43.2685354 20.3736485,42.7983472 19.7911111,42.7772727 Z" id="Path"></path>
                <path d="M19.7368889,53.4 C19.4505301,53.3963533 19.1746499,53.5082394 18.9708779,53.7106639 C18.7671059,53.9130883 18.6524215,54.1891838 18.6524444,54.4772727 L18.6524444,58.0090909 C18.6059538,58.425431 18.8005902,58.8317726 19.1532553,59.054632 C19.5059205,59.2774915 19.9543017,59.2774915 20.3069669,59.054632 C20.659632,58.8317726 20.8542684,58.425431 20.8077778,58.0090909 L20.8077778,54.5454545 C20.8265227,54.2481255 20.722028,53.9562631 20.5191299,53.7392373 C20.3162318,53.5222115 20.0330492,53.3994027 19.7368889,53.4 Z" id="Path"></path>
                <path d="M30.4593333,42.8454545 C30.1729746,42.8418078 29.8970944,42.953694 29.6933223,43.1561184 C29.4895503,43.3585428 29.3748659,43.6346384 29.3748889,43.9227273 L29.3748889,47.4545455 C29.4365167,48.0064444 29.9004767,48.4236779 30.4525556,48.4236779 C31.0046344,48.4236779 31.4685944,48.0064444 31.5302222,47.4545455 L31.5302222,43.9227273 C31.5229123,43.3308387 31.0477145,42.852808 30.4593333,42.8454545 Z" id="Path"></path>
                <path d="M30.4051111,53.4545455 C30.1187523,53.4508988 29.8428721,53.5627849 29.6391001,53.7652093 C29.4353281,53.9676337 29.3206437,54.2437293 29.3206667,54.5318182 L29.3206667,58.0772727 C29.3206667,58.6797652 29.806189,59.1681818 30.4051111,59.1681818 C31.0040332,59.1681818 31.4895556,58.6797652 31.4895556,58.0772727 L31.4895556,54.5454545 C31.493234,54.2550089 31.380162,53.9753767 31.1759864,53.7699839 C30.9718107,53.5645911 30.6938356,53.4508451 30.4051111,53.4545455 Z" id="Path"></path>
                <path d="M38.6468889,29.7 C38.7219339,25.3437779 35.3903119,21.6925203 31.0693333,21.3954545 L30.6762222,21.3954545 L30.5,21.0272727 C28.5842128,16.953278 24.5170899,14.3441228 20.0370552,14.315047 C15.5570206,14.2859713 11.4567706,16.8421197 9.48888889,20.8909091 L9.31266667,21.2454545 L8.906,21.2454545 C4.36167842,21.358422 0.768813387,25.1558613 0.881111285,29.7272727 C0.993409182,34.2986842 4.76834508,37.9129672 9.31266667,37.8 L30.5271111,37.9090909 C32.6865608,37.9054824 34.7559392,37.038132 36.2790838,35.4982336 C37.8022284,33.9583352 38.65409,31.8723136 38.6468889,29.7 Z M3.23977778,29.5090909 C3.30568364,26.1590716 6.00908196,23.4697745 9.33977778,23.4409091 C10.9229449,23.4469368 12.4390851,24.0844712 13.5555556,25.2136364 C13.9877944,25.6025472 14.6415389,25.6025472 15.0737778,25.2136364 C15.2814186,25.0088951 15.3986331,24.7288513 15.3991111,24.4363636 C15.4001083,24.1502699 15.2879363,23.8755274 15.0873333,23.6727273 C14.2903961,22.8649567 13.3347038,22.2333192 12.2813333,21.8181818 L11.5086667,21.5181818 L11.956,20.8227273 C13.6681156,18.0435497 16.6900164,16.3558549 19.9402222,16.3636364 C23.2063393,16.3635058 26.2429587,18.0531325 27.9786667,20.8363636 L28.426,21.5454545 L27.6397778,21.8318182 C26.5428489,22.2315877 25.5442555,22.8640797 24.7117778,23.6863636 C24.487785,23.9129674 24.3738264,24.2269758 24.4,24.5454545 C24.3990029,24.8315483 24.5111749,25.1062908 24.7117778,25.3090909 C24.911568,25.5234362 25.192415,25.6423925 25.4844444,25.6363636 C25.7688428,25.6373667 26.0419572,25.524526 26.2435556,25.3227273 C27.4022441,24.204052 28.9482512,23.5829409 30.5542222,23.5909091 C32.1437677,23.6124776 33.6579932,24.2758294 34.7564444,25.4318182 C36.4643235,27.1722102 36.9728513,29.7709304 36.0481197,32.0326423 C35.123388,34.2943543 32.9444505,35.7811282 30.5135556,35.8090909 L9.28555556,35.6454545 C5.95008434,35.5864459 3.26865397,32.8648388 3.23977778,29.5090909 Z" id="Shape" fill-rule="nonzero"></path>
            </g>
        </g>
    </g>
</svg>