<?xml version="1.0" encoding="UTF-8"?>
<svg width="60px" height="60px" viewBox="0 0 60 60" version="1.1" xmlns="http://www.w3.org/2000/svg" xmlns:xlink="http://www.w3.org/1999/xlink">
    <!-- Generator: Sketch 52.6 (67491) - http://www.bohemiancoding.com/sketch -->
    <title>main_page_solution3</title>
    <desc>Created with Sketch.</desc>
    <g id="Welcome" stroke="none" stroke-width="1" fill="none" fill-rule="evenodd">
        <g id="Sensilize" transform="translate(-199.000000, -2642.000000)" fill="#1A99E5">
            <g id="main_page_solution3" transform="translate(199.000000, 2642.000000)">
                <path d="M59.4036461,43.8319297 L30.5892856,29.4259233 C30.4338,29.3496493 30.2635307,29.3074912 30.0900955,29.3023256 C29.9204182,29.3025886 29.7535299,29.3450902 29.6047718,29.4259233 L0.624014605,43.5160687 C0.241851564,43.6927899 -0.001726956,44.0734081 2.70101728e-05,44.4911178 C-0.00290785927,44.9087759 0.233532822,45.2919593 0.610148214,45.4798999 L29.4938407,59.8859062 C29.8040385,60.0380313 30.1681566,60.0380313 30.4783544,59.8859062 L59.3897797,45.7820278 C59.7597449,45.600982 59.9955869,45.2293859 59.9999009,44.8207118 C60.0054838,44.4060879 59.7748804,44.0236734 59.4036461,43.8319297 Z M30.0762291,31.623217 L30.1594274,31.623217 L41.9735926,37.5421767 L30.0068971,43.3924709 L29.9236988,43.3924709 L18.0956673,37.4460451 L30.0762291,31.623217 Z M15.4749194,50.4512767 L3.59142228,44.5048508 L15.6274497,38.6545566 L27.5386795,44.6421817 L15.6274497,50.492476 L15.4749194,50.4512767 Z M29.9375652,57.6886126 L18.0263353,51.7284536 L30.0068971,45.8781594 L30.0762291,45.8781594 L41.9735926,51.8520514 L29.9375652,57.6886126 Z M44.400211,50.6435399 L32.4751147,44.6696479 L44.4556766,38.8193536 L44.5388749,38.8193536 L56.422372,44.7657795 L44.400211,50.6435399 Z" id="Shape" fill-rule="nonzero"></path>
                <path d="M43.255814,44.295785 C43.2557713,44.8686759 43.6946369,45.3351149 44.2404418,45.3422761 C44.6209769,45.3871396 44.9923733,45.1993151 45.196067,44.8589925 C45.3997606,44.51867 45.3997606,44.0859812 45.196067,43.7456586 C44.9923733,43.405336 44.6209769,43.2175116 44.2404418,43.2623751 C43.9793023,43.2623751 43.7288583,43.3712519 43.5442048,43.5650539 C43.3595512,43.7588558 43.255814,44.0217077 43.255814,44.295785 Z" id="Path"></path>
                <path d="M31.3953488,37.3255814 C31.3953488,36.747609 30.9268096,36.2790698 30.3488372,36.2790698 C29.7708648,36.2790698 29.3023256,36.747609 29.3023256,37.3255814 C29.3023256,37.9035538 29.7708648,38.372093 30.3488372,38.372093 C30.9238614,38.3650367 31.3882925,37.9006056 31.3953488,37.3255814 Z" id="Path"></path>
                <path d="M29.3024079,51.266016 C29.2971023,51.6904178 29.5486812,52.0759898 29.9392796,52.2420907 C30.3298781,52.4081917 30.7821229,52.321919 31.0841369,52.0236916 C31.3861508,51.7254642 31.4781083,51.2743574 31.3169271,50.8817154 C31.155746,50.4890735 30.7733543,50.2326742 30.3489032,50.232641 C30.0725653,50.2291429 29.8063393,50.3364698 29.6096981,50.5306457 C29.4130568,50.7248215 29.3023858,50.9896664 29.3024079,51.266016 Z" id="Path"></path>
                <path d="M15.7107282,43.2558963 C15.2863264,43.2505906 14.9007544,43.5021696 14.7346534,43.892768 C14.5685525,44.2833664 14.6548251,44.7356113 14.9530526,45.0376252 C15.25128,45.3396392 15.7023868,45.4315967 16.0950288,45.2704155 C16.4876707,45.1092344 16.74407,44.7268427 16.7441031,44.3023916 C16.7476012,44.0260537 16.6402744,43.7598276 16.4460985,43.5631864 C16.2519227,43.3665452 15.9870778,43.2558741 15.7107282,43.2558963 Z" id="Path"></path>
                <path d="M5.39685907,2.18738084 L11.4419516,2.18738084 L11.4419516,11.9089763 C11.4382691,12.2023578 11.5512529,12.4850037 11.7556632,12.6937731 C11.9600735,12.9025424 12.2388777,13.0200393 12.5297929,13.0200158 L18.5748854,13.0200158 L18.5748854,15.5615186 C18.5821166,16.1743765 19.0689763,16.6715407 19.6764968,16.6864461 L24.1517931,16.6864461 L18.8502882,21.9777717 C18.6465097,22.184314 18.532562,22.4641263 18.533575,22.7554993 L18.533575,26.6024735 C18.5335279,27.2107008 19.0183974,27.7059102 19.6214162,27.713513 C20.2268276,27.7136992 20.7218494,27.2267682 20.7367978,26.6163615 L20.7367978,23.2415791 L25.5288073,18.4224453 L25.7078192,19.8112447 C26.0182548,22.1490014 27.9959725,23.8943148 30.3345871,23.8943148 C32.6732016,23.8943148 34.6509194,22.1490014 34.9613549,19.8112447 L35.1541369,18.4224453 L39.9323763,23.2971311 L39.9323763,26.6719135 C39.8851498,27.0959363 40.0828673,27.509776 40.4411152,27.7367479 C40.7993631,27.9637197 41.2548423,27.9637197 41.6130902,27.7367479 C41.9713381,27.509776 42.1690556,27.0959363 42.121829,26.6719135 L42.121829,22.8388273 C42.1265403,22.5426551 42.0123122,22.2571454 41.8051157,22.0472116 L36.5449213,16.7697741 L41.0339877,16.7697741 C41.6393991,16.7699602 42.1344209,16.2830292 42.1493693,15.6726226 L42.1493693,13.2005597 L48.1944618,13.2005597 C48.4853537,13.2042737 48.7656011,13.090323 48.9725989,12.8841632 C49.1795967,12.6780035 49.2960965,12.3968132 49.2960732,12.1034082 L49.2960732,2.38181275 L55.3411657,2.38181275 C55.9326864,2.43015242 56.4534693,1.99142248 56.5116279,1.3957652 C56.5118124,0.785172422 56.0290134,0.285914059 55.4237866,0.270837722 L41.1303787,0.270837722 C40.5730655,0.333976865 40.1517386,0.809315079 40.1517386,1.37493321 C40.1517386,1.94055134 40.5730655,2.41588956 41.1303787,2.4790287 L47.1754713,2.4790287 L47.1754713,11.0756967 L42.21822,11.0756967 L42.21822,8.57585788 C42.2219025,8.28247641 42.1089187,7.99983049 41.9045084,7.79106114 C41.7000981,7.58229178 41.4212939,7.46479489 41.1303787,7.46481839 L19.6489565,7.25649849 C19.0466699,7.27114196 18.5618643,7.76009671 18.5473451,8.36753798 L18.5473451,10.8534888 L13.603864,10.8534888 L13.603864,2.2568208 L19.6489565,2.2568208 C20.2573597,2.2568208 20.7505679,1.75939148 20.7505679,1.14578132 C20.7505679,0.532171152 20.2573597,0.0347418309 19.6489565,0.0347418309 L5.41062921,0.00696584374 C4.99020464,-0.0406649021 4.57987663,0.158744733 4.35483085,0.52005869 C4.12978507,0.881372648 4.12978507,1.34075002 4.35483085,1.70206398 C4.57987663,2.06337793 4.99020464,2.26278757 5.41062921,2.21515682 L5.39685907,2.18738084 Z M32.7856724,19.2418369 C32.7856724,20.6224598 31.6759539,21.7416758 30.3070468,21.7416758 C28.9381396,21.7416758 27.8284211,20.6224598 27.8284211,19.2418369 L27.8284211,16.6725581 L32.7856724,16.6725581 L32.7856724,19.2418369 Z M20.7367978,9.52024144 L40.0149972,9.63134539 L40.0149972,14.6171351 L20.7367978,14.5199191 L20.7367978,9.52024144 Z" id="Shape" fill-rule="nonzero"></path>
            </g>
        </g>
    </g>
</svg>