<?xml version="1.0" encoding="UTF-8"?>
<svg width="54px" height="60px" viewBox="0 0 54 60" version="1.1" xmlns="http://www.w3.org/2000/svg" xmlns:xlink="http://www.w3.org/1999/xlink">
    <!-- Generator: Sketch 52.6 (67491) - http://www.bohemiancoding.com/sketch -->
    <title>main_page_solution4</title>
    <desc>Created with Sketch.</desc>
    <g id="Welcome" stroke="none" stroke-width="1" fill="none" fill-rule="evenodd">
        <g id="Sensilize" transform="translate(-786.000000, -2296.000000)" fill="#1A99E5">
            <g id="main_page_solution4" transform="translate(786.000000, 2296.000000)">
                <path d="M16.6153846,2.79069767 C16.3179621,3.07633667 15.9313033,3.24896917 15.5215385,3.27906977 C13.3420635,3.32718709 11.3666267,4.58280858 10.3846154,6.54418605 C10.1602143,6.99163862 9.74866288,7.31421554 9.26307692,7.42325581 C6.24433187,8.1797581 3.83238236,10.4624525 2.89384615,13.4511628 C2.16416424,15.4980432 1.83958674,17.6691862 1.93846154,19.8418605 C1.96479529,20.8561174 1.7611672,21.8630615 1.34307692,22.7860465 C-0.913846154,27.7813953 -0.0415384615,32.4418605 3.80769231,35.8186047 C4.42837942,36.2919911 4.75052881,37.0636922 4.65230769,37.8418605 C4.20539794,41.2997475 5.70531291,44.7208893 8.54307692,46.7162791 C9.16747817,47.048153 9.51272234,47.743994 9.40153846,48.4465116 C9.23538462,50.4976744 9.72,52.5348837 11.6307692,53.4 C13.2890715,54.2823748 14.7426398,55.509413 15.8953846,57 C16.2881716,57.4237242 16.7091462,57.8199904 17.1553846,58.1860465 C20.4369231,60.8093023 23.5661538,60.5581395 26.1830769,57.3767442 C26.6676923,56.7767442 26.9169231,56.6232558 27.3184615,56.972093 C28.8422974,58.3971501 30.8655504,59.1536672 32.9429699,59.07516 C35.0203894,58.9966529 36.9817367,58.089555 38.3953846,56.5534884 C38.7969231,56.0930233 39.1846154,55.6186047 39.5446154,55.1581395 C39.7573857,54.8069674 40.0713437,54.5295161 40.4446154,54.3627907 C43.7261538,52.9674419 44.4876923,51.7813953 44.46,48.1116279 C44.3871485,47.6977426 44.5671002,47.2800957 44.9169231,47.0511628 C48.3507692,44.8604651 49.4584615,41.4697674 49.2230769,37.6325581 C49.1215366,37.0619832 49.3332559,36.4805757 49.7769231,36.1116279 C53.7182552,33.0444009 54.9138062,27.5727602 52.6153846,23.1209302 C52.0375868,22.0554561 51.7824487,20.8426448 51.8815385,19.6325581 C51.9316872,17.70859 51.6649951,15.7895526 51.0923077,13.9534884 C50.2479432,10.7532639 47.7447912,8.26811843 44.5569231,7.46511628 C44.0358293,7.32337666 43.6044419,6.9551336 43.38,6.46046512 C42.5010901,4.78709117 40.8789472,3.64019402 39.0184615,3.37674419 C38.2014039,3.26698051 37.4225551,2.96068339 36.7476923,2.48372093 C34.1691499,0.195913813 30.4027321,-0.105235265 27.4984615,1.74418605 C27.1610456,1.99539074 26.7004929,1.99539074 26.3630769,1.74418605 C22.86,-0.376744186 19.6061538,0.306976744 16.6153846,2.79069767 Z M27.9138462,5.23255814 C27.8022081,4.27057767 28.3827313,3.36379153 29.2984615,3.06976744 C31.1721471,2.23178412 33.3472567,2.46587811 35.0030769,3.68372093 C35.4461538,3.97674419 35.5292308,4.24186047 35.1692308,4.68837209 C34.8092308,5.13488372 34.2692308,5.88837209 33.7846154,6.51627907 C33.3,7.14418605 33.3276923,7.63255814 33.9092308,8.06511628 C34.4907692,8.49767442 35.0169231,8.23255814 35.4184615,7.71627907 C35.7733189,7.30385702 36.0972871,6.86544156 36.3876923,6.40465116 C36.8322637,5.50546303 37.8609243,5.06711465 38.8107692,5.37209302 C39.9632505,5.55288077 40.9691604,6.25784497 41.5384615,7.28372093 C41.8846154,7.89767442 41.1646154,7.91162791 40.86,8.07906977 C38.5923872,9.26648221 36.9827359,11.42761 36.4846154,13.9534884 C36.3900709,14.3221635 36.3573122,14.7041662 36.3876923,15.0837209 C36.3977606,15.342211 36.5136612,15.5849423 36.7078191,15.7541643 C36.9019769,15.9233863 37.1570341,16.0039705 37.4123077,15.9767442 C38.0492308,15.9767442 38.3261538,15.4883721 38.3953846,14.8744186 C38.6840433,12.5742607 40.1588303,10.599712 42.2723077,9.68372093 C42.9350674,9.32020608 43.7189844,9.25437326 44.4323077,9.50232558 C46.6528055,10.2427891 48.3743116,12.0297379 49.0430769,14.2883721 C49.7220419,16.3646279 49.9947747,18.5539264 49.8461538,20.7348837 C49.8012271,21.485843 49.9642105,22.2346154 50.3169231,22.8976744 C53.4323077,29.0790698 51.0646154,33.6697674 45.4292308,36.4325581 C43.4907692,37.3813953 41.6630769,36.655814 40.2784615,34.6325581 C39.9433741,34.09913 39.642751,33.5444921 39.3784615,32.972093 C39.06,32.372093 38.5892308,32.0511628 37.9938462,32.3581395 C37.7228772,32.4844528 37.5189627,32.722183 37.4341469,33.0106554 C37.3493311,33.2991277 37.3918199,33.6104324 37.5507692,33.8651163 C38.9353846,37.0325581 42.0784615,40.3813953 46.7307692,38.1348837 C46.8503966,38.1214053 46.9711419,38.1214053 47.0907692,38.1348837 C47.6412975,41.1230046 46.1767198,44.1202798 43.4907692,45.5023256 C43.0408719,45.6423515 42.667006,45.9610566 42.4553842,46.3849485 C42.2437623,46.8088403 42.2126533,47.3013251 42.3692308,47.7488372 C42.9230769,50.372093 42.0230769,51.7534884 39.5169231,52.4511628 C38.9577071,52.6176753 38.4854948,52.9983736 38.2015385,53.5116279 C37.2489733,55.0085196 35.9764034,56.2718847 34.4769231,57.2093023 C33.0388692,58.3006245 31.0086084,58.0874996 29.8246154,56.7209302 C28.5178389,55.5949782 27.789401,53.9317374 27.8446154,52.2 C27.9184615,36.544186 27.9230769,20.8837209 27.8584615,5.21860465 L27.9138462,5.23255814 Z M24.5215385,3.06976744 C25.4267164,3.33531191 26.0110668,4.21863223 25.9061538,5.1627907 C25.9061538,13.172093 25.9061538,21.1953488 25.9061538,29.2186047 L25.9061538,53.0232558 C25.8228029,55.0023908 24.6231097,56.7589549 22.8184615,57.544186 C21.3092308,58.4372093 19.9246154,57.6837209 18.6646154,56.7348837 C17.5021435,55.8411585 16.5079744,54.7447661 15.7292308,53.4976744 C15.4484155,52.9813676 14.9830333,52.5922058 14.4276923,52.4093023 C11.8661538,51.6697674 10.9938462,50.3581395 11.5061538,47.7488372 C11.6748548,47.3051737 11.6581909,46.8115903 11.4599576,46.3805076 C11.2617243,45.9494249 10.8988001,45.6175475 10.4538462,45.4604651 C7.47692308,43.9116279 6.16153846,40.7581395 6.79846154,36.9627907 C7.02644437,36.2329556 6.74322691,35.4395076 6.10615385,35.0232558 C1.95230769,31.8697674 1.01076923,27.6418605 3.46153846,23.0372093 C3.8733772,22.3138274 4.06141495,21.4829629 4.00153846,20.6511628 C3.85688371,18.6767033 4.06319771,16.6920761 4.61076923,14.7906977 C5.2142532,11.8552359 7.6110878,9.63642467 10.5646154,9.27906977 C11.0614683,9.19710257 11.4750157,8.8498083 11.6446154,8.37209302 C12.5446154,6.41860465 13.8461538,5.06511628 16.2692308,5.34418605 C16.8923077,5.42790698 17.2246154,4.9255814 17.6538462,4.5627907 C19.6476923,2.79069767 21.8492308,1.91162791 24.5215385,3.06976744 Z" id="Shape" fill-rule="nonzero"></path>
                <path d="M29.3815385,23.2744186 C30.2538462,23.8744186 30.7661538,23.1767442 31.1953846,22.5488372 C31.9299852,21.3941343 32.5602083,20.1752862 33.0784615,18.9069767 C33.5269258,19.3852331 33.8463125,19.9713112 34.0061538,20.6093023 C34.5454752,22.1559011 35.2758313,23.6279366 36.18,24.9906977 C38.439583,28.3503672 42.7232088,29.6593796 46.4538462,28.1302326 C47.0630769,27.8790698 47.4646154,27.4883721 47.2569231,26.7348837 C47.1924929,26.4618885 47.0130844,26.2308053 46.7656463,26.1021053 C46.5182082,25.9734053 46.2273666,25.9598974 45.9692308,26.0651163 C45.6369231,26.1348837 45.3184615,26.2325581 45,26.3162791 C42.015455,27.3070035 38.7634075,25.9245969 37.3846154,23.0790698 C36.7217789,21.8643607 36.1524152,20.6001845 35.6815385,19.2976744 C35.4560925,18.4754306 34.9698008,17.7501397 34.2969231,17.2325581 C33.7820195,16.9813118 33.5606197,16.3615447 33.7984615,15.8372093 C34.1319493,14.3634735 34.2945758,12.8557111 34.2830769,11.344186 C34.3187952,11.0665867 34.2346107,10.7868851 34.0518854,10.5760561 C33.8691601,10.3652271 33.6054574,10.2435354 33.3276923,10.2418605 C32.6630769,10.2418605 32.3446154,10.6186047 32.2615385,11.2325581 C32.2615385,11.6093023 32.2615385,11.9860465 32.1784615,12.3627907 C32.097276,15.5715502 31.13903,18.6955066 29.4092308,21.3906977 C29.0769231,22.0465116 28.5646154,22.6883721 29.3815385,23.2744186 Z" id="Path"></path>
                <path d="M35.7369231,42.9069767 C34.8230769,43.1860465 34.6153846,42.8232558 34.4907692,42 C34.1386201,40.0522232 33.2178072,38.2546218 31.8461538,36.8372093 C31.3615385,36.2930233 30.8076923,35.6930233 30.06,36.3767442 C29.3123077,37.0604651 29.7969231,37.6465116 30.3230769,38.2046512 C31.4884293,39.4193941 32.2733345,40.9528467 32.58,42.6139535 C32.8586741,43.5996565 32.6007917,44.6603976 31.9015385,45.4046512 C31.0075836,46.4619677 30.3173031,47.6781398 29.8661538,48.9906977 C29.5892308,49.6744186 29.6307692,50.2744186 30.3507692,50.5674419 C31.0707692,50.8604651 31.4584615,50.4697674 31.7353846,49.8418605 C31.7353846,49.7302326 31.8323077,49.6186047 31.8738462,49.4930233 C32.9123077,47.3023256 33.9646154,45.1534884 36.7615385,44.8046512 C37.2046154,44.8046512 37.4261538,44.344186 37.4538462,43.827907 C37.26,42.8372093 36.5123077,42.6697674 35.7369231,42.9069767 Z" id="Path"></path>
                <path d="M12.8353846,12.3906977 C12.0733883,14.0786292 12.6645363,16.0743265 14.22,17.0651163 C15.7846154,17.8325581 15.7153846,18.9348837 15.6738462,20.2186047 C15.6738462,20.8046512 15.6738462,21.3906977 15.6738462,21.9906977 C15.6738462,23.1627907 15.6738462,24.3348837 15.6738462,25.5069767 C15.6738462,26.0511628 15.4938462,26.2604651 14.9538462,26.2465116 C14.1784615,26.2465116 13.5692308,26.3302326 13.0569231,25.3116279 C12.2224036,23.6248373 10.3150136,22.7750949 8.51538462,23.2883721 C6.78892472,23.8393789 5.61566679,25.4540593 5.61566679,27.2790698 C5.61566679,29.1040802 6.78892472,30.7187607 8.51538462,31.2697674 C10.2753714,31.7473059 12.1284342,30.9295814 12.9738462,29.3023256 C13.233566,28.5770143 13.9831617,28.1547004 14.7323077,28.3116279 C15.1476923,28.3116279 15.5630769,28.3116279 15.9784615,28.3116279 C18.6784615,28.3116279 18.6369231,28.3116279 18.7476923,31.1023256 C18.8541655,31.9260603 18.4085857,32.7218165 17.6538462,33.055814 C16.376743,33.7950659 15.6079509,35.1835099 15.654315,36.6669814 C15.7006791,38.1504529 16.5546496,39.48739 17.8753846,40.144186 C18.7892308,40.6186047 18.7753846,41.2325581 18.72,41.972093 C18.6646154,42.7116279 19.08,43.7302326 17.8476923,44.2883721 C16.1361463,45.0813933 15.2455836,47.0062222 15.7430769,48.8372093 C16.1498241,50.6748129 17.7492798,51.9948875 19.617147,52.0345855 C21.4850141,52.0742835 23.1382746,50.8233392 23.6215385,49.0046512 C24.1964163,47.163769 23.3565361,45.1750464 21.6415385,44.3162791 C20.4507692,43.7581395 20.7415385,42.9209302 20.7,42.027907 C20.6584615,41.1348837 20.7,40.6325581 21.6276923,40.1162791 C22.8610675,39.5021502 23.6827372,38.2792499 23.790638,36.8971424 C23.8985388,35.5150349 23.2767468,34.17769 22.1538462,33.3767442 C21.0519714,32.7490074 20.4891672,31.4672099 20.7692308,30.2232558 C20.7692308,29.6372093 20.7692308,29.0511628 20.7692308,28.4511628 C20.7692308,26.3162791 20.7692308,26.2744186 18.6507692,26.2604651 C17.8338462,26.2604651 17.6815385,25.9674419 17.6953846,25.227907 C17.6953846,23.2604651 17.6953846,21.2930233 17.6953846,19.3116279 C17.5538645,18.4923867 18.0059219,17.6863928 18.7753846,17.3860465 C20.3728148,16.4997419 21.1487771,14.6172035 20.6446154,12.8511628 C20.1896596,11.1376331 18.6966173,9.91052086 16.9395144,9.80598797 C15.1824114,9.70145507 13.5564706,10.743014 12.9046154,12.3906977 L12.8353846,12.3906977 Z M9.55384615,29.3023256 C9.0085256,29.3329113 8.47462794,29.1367259 8.07683413,28.7595846 C7.67904033,28.3824433 7.45217964,27.857367 7.44923077,27.3069767 C7.4379121,26.7545844 7.64971915,26.2212499 8.03609002,25.829253 C8.4224609,25.4372562 8.95025457,25.2202206 9.49846154,25.227907 C10.0272664,25.2315948 10.5329576,25.4468336 10.9042824,25.8262705 C11.2756072,26.2057074 11.4821465,26.7182588 11.4784615,27.2511628 C11.4971125,27.7814552 11.3039189,28.2971284 10.9421524,28.6826818 C10.5803859,29.0682352 10.0802792,29.2914482 9.55384615,29.3023256 Z M21.7384615,47.9581395 C21.7206622,48.5061424 21.4844175,49.0237804 21.0831314,49.3940398 C20.6818453,49.7642993 20.1493991,49.9559185 19.6061538,49.9255814 C18.5206424,49.874331 17.6606893,48.9832997 17.64,47.8883721 C17.6773573,46.7520545 18.602574,45.8505393 19.7307692,45.8511628 C20.2779785,45.8583455 20.7992643,46.0872897 21.1770072,46.486338 C21.55475,46.8853863 21.7571221,47.4209158 21.7384615,47.972093 L21.7384615,47.9581395 Z M21.7384615,36.5302326 C21.8018989,37.3059918 21.4271026,38.0517943 20.7690181,38.4593158 C20.1109337,38.8668373 19.281374,38.8668373 18.6232896,38.4593158 C17.9652051,38.0517943 17.5904088,37.3059918 17.6538462,36.5302326 C17.6972167,35.4437918 18.5691077,34.5773454 19.6476923,34.5488372 C20.1885958,34.5300498 20.7143863,34.7306255 21.1073582,35.1056626 C21.5003301,35.4806997 21.7276617,35.9988744 21.7384615,36.544186 L21.7384615,36.5302326 Z M18.6507692,13.9534884 C18.612879,15.066906 17.6945055,15.9431487 16.5892325,15.920451 C15.4839596,15.8977534 14.6017708,14.9845348 14.6089223,13.8704859 C14.6160738,12.756437 15.5099128,11.8547968 16.6153846,11.8465116 C17.1685888,11.8342285 17.701979,12.0541733 18.0879616,12.4537324 C18.4739442,12.8532915 18.6778019,13.3965264 18.6507692,13.9534884 Z" id="Shape" fill-rule="nonzero"></path>
            </g>
        </g>
    </g>
</svg>