<?xml version="1.0" encoding="UTF-8"?>
<svg width="57px" height="57px" viewBox="0 0 57 57" version="1.1" xmlns="http://www.w3.org/2000/svg" xmlns:xlink="http://www.w3.org/1999/xlink">
    <!-- Generator: Sketch 52.6 (67491) - http://www.bohemiancoding.com/sketch -->
    <title>main_page_solution5</title>
    <desc>Created with Sketch.</desc>
    <g id="Welcome" stroke="none" stroke-width="1" fill="none" fill-rule="evenodd">
        <g id="Sensilize" transform="translate(-785.000000, -2467.000000)" fill="#1A99E5">
            <g id="main_page_solution5" transform="translate(785.000000, 2467.000000)">
                <path d="M27.8004545,7.43590909 C28.1970202,7.0285278 28.1970202,6.37942674 27.8004545,5.97204545 C24.4781351,2.60537522 19.9524396,0.699493393 15.2225682,0.675187784 C10.4926967,0.650882176 5.94765305,2.51015177 2.59090909,5.8425 C2.40013762,6.0368883 2.28919741,6.2957488 2.28,6.56795455 C2.29088136,6.84360117 2.40134483,7.10595191 2.59090909,7.30636364 C3.00098789,7.69623451 3.64469393,7.69623451 4.05477273,7.30636364 C7.02683428,4.36403912 11.0469338,2.72432599 15.2290185,2.74862631 C19.4111033,2.77292663 23.4118766,4.45924564 26.3495455,7.43590909 C26.7525287,7.83091171 27.3974713,7.83091171 27.8004545,7.43590909 Z" id="Path"></path>
                <path d="M7.31931818,10.6227273 C7.12302804,10.8130428 7.012237,11.0747777 7.012237,11.3481818 C7.012237,11.6215859 7.12302804,11.8833208 7.31931818,12.0736364 C7.73664092,12.444932 8.36585908,12.444932 8.78318182,12.0736364 C12.3378977,8.57554215 18.0502255,8.60447998 21.5693182,12.1384091 C21.8236844,12.4237223 22.2144491,12.5458583 22.5860196,12.4561856 C22.9575901,12.3665128 23.2496351,12.0795914 23.3458698,11.7096661 C23.4421044,11.3397408 23.3269032,10.9468758 23.0461364,10.6875 C20.9733808,8.5856588 18.1481285,7.39701169 15.1961962,7.38485381 C12.2442639,7.37269594 9.4093165,8.53803085 7.31931818,10.6227273 Z" id="Path"></path>
                <path d="M55.3677273,57 C55.6413898,57.0034644 55.9050384,56.8971725 56.0997758,56.7048693 C56.2945132,56.5125661 56.4041128,56.2502754 56.4040909,55.9765909 L56.5077273,35.7027273 C56.5111846,35.4278602 56.4052987,35.1628798 56.2133676,34.9660898 C56.0214366,34.7692998 55.7591858,34.6568235 55.4843182,34.6534091 L49.6806818,34.6534091 L49.6806818,29.4715909 L55.9506818,26.4272727 C56.3033957,26.255699 56.5290269,25.8997033 56.5336364,25.5075 L56.6372727,5.33727273 C56.6372404,4.98134851 56.4567874,4.64970519 56.1579545,4.45636364 C55.8486276,4.28080709 55.4697815,4.28080709 55.1604545,4.45636364 L48.7997727,7.46181818 L42.5556818,4.30090909 C42.2430461,4.12040877 41.857863,4.12040877 41.5452273,4.30090909 C41.2470073,4.49036049 41.0624955,4.81568383 41.0529545,5.16886364 L41.0529545,11.2575 L35.34,14.0686364 L29.1088636,10.9077273 C28.79486,10.7324063 28.4124127,10.7324063 28.0984091,10.9077273 C27.7908922,11.0944297 27.6039898,11.4288867 27.6061364,11.7886364 L27.5284091,25.2225 C27.5256672,25.6164808 27.7465597,25.9779412 28.0984091,26.1552273 L34.2259091,29.2643182 L34.2259091,34.4461364 L16.0895455,34.3554545 L16.1543182,22.7611364 L16.5818182,22.6186364 C18.6911045,21.8876123 19.9163524,19.6904882 19.4296911,17.5118084 C18.9430298,15.3331285 16.8993273,13.8662043 14.6794646,14.1022013 C12.4596019,14.3381984 10.7699958,16.2020165 10.7522727,18.4343182 C10.7368407,20.2964948 11.9009453,21.9646982 13.6540909,22.5927273 L14.0815909,22.7481818 L14.0815909,34.4072727 L1.48977273,34.3295455 C1.21611019,34.3260811 0.952461635,34.4323729 0.75772421,34.6246761 C0.562986784,34.8169793 0.453387164,35.0792701 0.453409091,35.3529545 L0.336818182,55.6268182 C0.336818182,56.199186 0.800813987,56.6631818 1.37318182,56.6631818 L55.3677273,57 Z M49.8231818,9.2625 L54.6034091,6.94363636 L54.6034091,11.3611364 L49.8231818,13.68 L49.8231818,9.2625 Z M49.8231818,15.9859091 L54.6034091,13.6670455 L54.6034091,18.0845455 L49.8231818,20.4034091 L49.8231818,15.9859091 Z M49.8231818,22.7093182 L54.6034091,20.3904545 L54.6034091,24.8079545 L49.8102273,27.1268182 L49.8231818,22.7093182 Z M43.1127273,6.89181818 L47.7634091,9.24954545 L47.7634091,13.6670455 L43.1127273,11.3093182 L43.1127273,6.89181818 Z M43.1127273,13.6152273 L47.7634091,15.9729545 L47.7634091,20.3775 L43.1127273,18.0327273 L43.1127273,13.6152273 Z M43.1127273,20.3386364 L47.7634091,22.6963636 L47.7634091,27.1009091 L43.1256818,24.7561364 L43.1127273,20.3386364 Z M36.4152273,15.9081818 L41.0918182,13.6022727 L41.0918182,18.0197727 L36.2727273,20.3256818 L36.4152273,15.9081818 Z M36.4152273,22.6315909 L41.0788636,20.3256818 L41.0788636,24.7431818 L36.2727273,27.0490909 L36.4152273,22.6315909 Z M36.4152273,29.355 L42.1152273,26.5438636 L47.7893182,29.4197727 L47.7893182,34.6015909 L36.2727273,34.5109091 L36.4152273,29.355 Z M29.7825,13.5504545 L34.4202273,15.8952273 L34.4202273,20.3127273 L29.7825,17.955 L29.7825,13.5504545 Z M29.7177273,24.6784091 L29.7177273,20.2609091 L34.3554545,22.6186364 L34.3554545,27.0361364 L29.7177273,24.6784091 Z M12.7990909,18.4990909 C12.8062652,17.2112926 13.8560409,16.173138 15.1438392,16.1802991 C16.4316376,16.1874602 17.469803,17.2372252 17.4626552,18.5250236 C17.4555074,19.812822 16.405753,20.8509982 15.1179545,20.8438636 C14.4995149,20.8404374 13.9077671,20.5914724 13.4728938,20.1517401 C13.0380205,19.7120079 12.7956456,19.1175304 12.7990909,18.4990909 Z M2.51318182,36.4022727 L14.0038636,36.4022727 L14.0038636,45.4704545 C14.0003993,45.7441171 14.1066911,46.0077656 14.2989943,46.2025031 C14.4912975,46.3972405 14.7535883,46.5068401 15.0272727,46.5068182 L20.7272727,46.6363636 L20.7272727,48.9552273 C20.7272727,49.5275951 21.1912685,49.9915909 21.7636364,49.9915909 L38.6045455,50.0952273 C39.1769133,50.0952273 39.6409091,49.6312315 39.6409091,49.0588636 L39.6409091,42.3354545 C39.6409534,41.7681078 39.1848024,41.3061827 38.6175,41.2990909 L21.7765909,41.2084091 C21.5029284,41.2049447 21.2392798,41.3112366 21.0445424,41.5035398 C20.849805,41.695843 20.7402053,41.9581337 20.7402273,42.2318182 L20.7402273,44.5636364 L16.0895455,44.5636364 L16.0895455,36.5447727 L54.4090909,36.6743182 L54.4090909,54.8884091 L2.40954545,54.6034091 L2.51318182,36.4022727 Z M22.7222727,47.9318182 L22.7222727,43.2811364 L30.7411364,43.2811364 L30.7411364,47.9447727 L22.7222727,47.9318182 Z M32.8138636,47.9318182 L32.8138636,43.2681818 L37.4645455,43.2681818 L37.4645455,47.9318182 L32.8138636,47.9318182 Z" id="Shape" fill-rule="nonzero"></path>
            </g>
        </g>
    </g>
</svg>