<?xml version="1.0" encoding="UTF-8"?>
<svg width="61px" height="60px" viewBox="0 0 61 60" version="1.1" xmlns="http://www.w3.org/2000/svg" xmlns:xlink="http://www.w3.org/1999/xlink">
    <!-- Generator: Sketch 52.6 (67491) - http://www.bohemiancoding.com/sketch -->
    <title>main_page_solution1</title>
    <desc>Created with Sketch.</desc>
    <g id="Welcome" stroke="none" stroke-width="1" fill="none" fill-rule="evenodd">
        <g id="Sensilize" transform="translate(-192.000000, -2296.000000)" fill="#1A99E5">
            <g id="main_page_solution1" transform="translate(192.000000, 2296.000000)">
                <path d="M13.9191056,53.0592938 L13.840829,53.0592938 L13.7495063,53.0592938 C12.317362,52.7735435 11.0176153,52.0396325 10.0444149,50.9671881 C8.84954724,49.934891 8.09861546,48.494038 7.94399342,46.9369968 C7.97420853,46.621074 7.81676745,46.3162834 7.53956443,46.1540616 C7.37064775,46.0526672 7.17645632,45.9993511 6.97858228,46.0000415 C6.79791749,45.9985342 6.61933609,46.0380649 6.45673842,46.1155566 C6.17060197,46.2685311 5.99462991,46.5653164 6.00012505,46.8856568 C6.11573087,48.9612008 7.05223312,50.9098543 8.60934433,52.3148635 C9.98937924,53.8555495 11.9182268,54.8158554 13.9973822,54.9973794 C14.3519724,55.0242175 14.6893845,54.8431524 14.8584245,54.5353192 C15.0471918,54.2136549 15.0471918,53.8173482 14.8584245,53.4956839 C14.6908107,53.2310415 14.392422,53.0744759 14.0756587,53.0849638 L13.9191056,53.0592938 Z" id="Path"></path>
                <path d="M12.9257444,59.9989078 C13.3088902,60.016389 13.6702729,59.8229408 13.8641315,59.4965891 C14.0452895,59.1667163 14.0452895,58.7689489 13.8641315,58.4390762 C13.6881686,58.1651804 13.3744923,58.0079902 13.0463942,58.0292899 L12.8587168,58.0292899 C10.0906842,57.6608808 7.54718291,56.3294816 5.68675858,54.2751189 C3.34079094,51.9353714 1.9063993,49.0800864 2.000238,46.9650605 C2.02485925,46.6409261 1.8647044,46.3301698 1.58466659,46.1587069 C1.40693063,46.0525575 1.2026017,45.9976072 0.994823299,46.0000799 C0.813651432,46.0000799 0.63485877,46.0407654 0.472007653,46.1190501 C0.173453406,46.2719479 -0.00917134881,46.5806607 0.0028141255,46.9121849 C-0.0776190507,49.5559673 1.57126106,52.9135709 4.29258352,55.6366668 C7.01390598,58.3597627 10.2580441,59.9856889 12.9257444,59.9989078 Z" id="Path"></path>
                <path d="M15.081172,31.4317629 L14.8438917,31.6534795 C11.4419647,35.0067993 11.07742,40.3466487 13.9924742,44.1250405 L14.0901779,44.2497561 L12.2896393,45.9680601 C12.0300116,46.196026 11.9266415,46.5525187 12.0244436,46.8826412 C12.1403841,47.2719671 12.4438812,47.5784768 12.8339881,47.7002213 C13.1664887,47.7904845 13.521927,47.6888972 13.7551939,47.4369328 L15.5278172,45.7047716 L15.6394786,45.7879153 C19.4110715,48.7186921 24.7874172,48.4162234 28.2013759,45.0811935 L28.4246985,44.8456196 L42.228828,58.7029096 C42.635879,59.0990301 43.2873317,59.0990301 43.6943827,58.7029096 L51.7060817,50.8319689 C51.9014036,50.6376215 52.00743,50.3719554 51.9991926,50.0975325 C52.0104452,49.8266616 51.9036434,49.5641019 51.7060817,49.3769534 L37.9159099,35.5889499 L41.9915477,31.5841931 L46.5417461,30.3924661 C46.9019722,30.2999312 47.1812172,30.0173629 47.2675446,29.6580297 C47.3794778,29.305012 47.2824005,28.9194954 47.0163066,28.6603049 L31.8303685,13.3341421 C31.5733121,13.0830691 31.2029748,12.9832718 30.853332,13.0708536 C30.4980726,13.1474855 30.2108523,13.4062371 30.0996182,13.7498608 L28.7038518,18.1703363 L24.6421717,22.1612358 L10.8380422,8.30394585 C10.4293373,7.89868472 9.76723476,7.89868472 9.35852987,8.30394585 L1.30495789,16.1887439 C1.10976685,16.3812438 1,16.6431037 1,16.9162516 C1,17.1893995 1.10976685,17.4512593 1.30495789,17.6437593 L15.081172,31.4317629 Z M10.8938729,24.2121148 L13.336464,21.7316599 L19.0730638,27.4962925 L16.574642,30.0460339 L10.8938729,24.2121148 Z M29.9460839,43.3906041 L32.4445057,40.9378638 L38.1950632,46.6747819 L35.6966414,49.1275222 L29.9460839,43.3906041 Z M42.9964995,56.5134578 L37.1482384,50.6241095 L39.6466602,48.1713692 L45.508879,54.0607174 L42.9964995,56.5134578 Z M49.4868131,50.1529617 L46.9883913,52.605702 L41.1401302,46.6747819 L43.638552,44.2220415 L49.4868131,50.1529617 Z M42.1729973,42.7947407 L39.6745755,45.2890529 L33.9240181,39.4828484 L36.4363975,36.9746789 L42.1729973,42.7947407 Z M31.5232999,15.9947418 L44.3085199,28.8265923 L41.7682251,29.4917423 L41.7682251,29.4224558 L30.7975014,18.4197675 L31.5232999,15.9947418 Z M24.544468,25.0158376 L28.6340635,29.1730246 C29.0389007,29.4487972 29.5823908,29.4081876 29.9410924,29.0753633 C30.299794,28.7425389 30.3773201,28.2069332 30.1275335,27.7872956 L26.037938,23.6301086 L29.4994386,20.2350725 L39.9397711,30.7111838 L26.7358212,43.6816072 C23.8181143,46.5438928 19.1156975,46.5159742 16.2326793,43.6192494 C13.3496611,40.7225246 13.3777818,36.0539242 16.2954887,33.1916387 L24.544468,25.0158376 Z M23.0230827,23.6301086 L20.5107032,26.0828489 L14.8159764,20.3459309 L17.3143982,17.8516187 L23.0230827,23.6301086 Z M9.94475175,10.507255 L15.8069705,16.3966032 L13.3085487,18.8493435 L7.44632994,12.9599953 L9.94475175,10.507255 Z M6.00869057,14.4011534 L11.8709093,20.3459309 L9.37248753,22.743242 L3.51026876,16.8538938 L6.00869057,14.4011534 Z" id="Shape" fill-rule="nonzero"></path>
                <path d="M17.5068599,41.7129717 C18.4397849,42.5487704 19.7030462,43.011957 21.0152388,42.9993518 C22.3332376,43.0198003 23.6041355,42.5556926 24.5378217,41.7129717 C25.4737438,40.870292 26,39.724406 26,38.5291809 C26,37.3339558 25.4737438,36.1880698 24.5378217,35.3453901 C22.6041198,33.5692699 19.4467121,33.5491123 17.4855541,35.3003669 C15.524396,37.0516215 15.5021384,39.9111238 17.4358401,41.6872441 L17.5068599,41.7129717 Z M19.040888,36.6960892 C19.8572257,35.950418 21.0920112,35.7288747 22.1606005,36.1363554 C23.2291898,36.5438361 23.917109,37.4985561 23.8986434,38.5484766 C23.8986434,39.9693728 22.6267772,41.1212368 21.0578507,41.1212368 C20.3007162,41.1217802 19.5746678,40.8485749 19.040888,40.3622726 C18.5056191,39.8735955 18.2088951,39.2110427 18.2170581,38.522749 C18.2126925,37.8389016 18.5091299,37.1816175 19.040888,36.6960892 Z" id="Shape" fill-rule="nonzero"></path>
                <path d="M50.0553327,24.6203836 C50.2856541,24.862776 50.6052779,25 50.93954,25 C51.2738021,25 51.5934259,24.862776 51.8237473,24.6203836 C54.9767346,22.0416029 58.9111144,18.831844 60.4190648,14.4698638 C61.8512066,10.1014891 60.5841623,5.298855 57.1838257,2.20693849 C53.6330656,-0.735646162 48.4927699,-0.735646162 44.9420098,2.20693849 C41.606883,5.09835327 40.2352133,9.65376507 41.4188893,13.9074701 C42.7212101,18.2282995 46.5596294,21.684963 50.0553327,24.6203836 Z M46.230622,3.72951646 C47.6021804,2.62616244 49.3099181,2.025915 51.0697721,2.02861854 C52.8326833,2.05885088 54.5297068,2.70410924 55.8677962,3.85296873 C58.6230991,6.39662155 59.6457392,10.3128587 58.4861465,13.8800363 C57.2797862,17.3778506 54.2775939,20.0389328 51.0560634,22.6725812 L50.9463943,22.7685996 L50.8367252,22.6725812 C47.6014861,19.9291974 44.4484988,16.9114753 43.3792248,13.3176426 C42.412511,9.83890729 43.5204164,6.1134577 46.230622,3.72951646 Z" id="Shape" fill-rule="nonzero"></path>
                <path d="M51.4732113,14.9999335 C54.5107375,15.0147145 56.9851281,12.5643194 56.9999333,9.52680713 C57.0147384,6.4892949 54.5643518,4.01489613 51.5268258,4.00006695 C48.4892999,3.98523778 46.0148704,6.43559363 46.000017,9.47310563 C45.9925529,12.5076619 48.4387128,14.9777925 51.4732113,14.9999335 Z M51.4732113,5.99871627 C53.4050702,6.01353412 54.9598469,7.59030461 54.9475199,9.52217219 C54.9351929,11.4540398 53.3604212,13.0108412 51.4285306,13.0010051 C49.4966399,12.9911691 47.9378022,11.4184132 47.9451474,9.48652026 C47.9448061,8.54499524 48.3251338,7.64332572 48.9996792,6.98646799 C49.6742247,6.32961025 50.585682,5.97336746 51.5268701,5.99871627 L51.4732113,5.99871627 Z" id="Shape" fill-rule="nonzero"></path>
                <path d="M32.490885,34 C33.3079098,33.9793693 33.9684178,33.327257 34,32.5100674 C33.9891629,31.6806137 33.3198158,31.0108444 32.490885,31.0000005 C31.6915451,30.999343 31.034297,31.6303436 31.0018915,32.4295305 C30.9814805,32.8318141 31.1269582,33.2248516 31.4043222,33.5167786 C31.6851596,33.8198567 32.0778716,33.9945054 32.490885,34 Z" id="Path"></path>
            </g>
        </g>
    </g>
</svg>